# xmcd
#
# Track frame offsets:
# 150
# 21780
# 37492
# 51871
# 70415
# 87804
# 105108
# 125303
# 141712
# 159234
#
# Disc length: 2350 seconds
#
# Revision: 1
# Processed by: cddbd v1.4PL0 Copyright (c) Steve Scherf et al.
# Submitted via: Easy CD Ripper 1.45
#
DISCID=86092c0a
DTITLE=Terry Terrell - The Door
DYEAR=2001
DGENRE=Gospel
TTITLE0=Every Time He Drove A Nail
TTITLE1=Terry Terrell - Before The Blood Was Dry
TTITLE2=Terry Terrell - The Door
TTITLE3=Terry Terrell - Sometimes It Takes A Storm
TTITLE4=Terry Terrell - Not The Great I Was
TTITLE5=Terry Terrell - There's An Easter Lily
TTITLE6=Terry Terrell - Gardens Of Stone
TTITLE7=Terry Terrell - It's Coming Down
TTITLE8=Terry Terrell - Hungry Eyes
TTITLE9=Terry Terrell - All I Need Is Jesus
EXTD=
EXTT0=
EXTT1=
EXTT2=
EXTT3=
EXTT4=
EXTT5=
EXTT6=
EXTT7=
EXTT8=
EXTT9=
PLAYORDER=
